<svg width="500" height="500" viewBox="0 0 500 500" fill="none" xmlns="http://www.w3.org/2000/svg">
<g clip-path="url(#clip0_238_6371)">
<path d="M365.303 21C439.697 21 500 82.17 500 157.618C500 174.859 496.724 191.299 490.974 206.484C484.054 226.664 473.471 247.147 460.53 267.355L415.782 116.011H390.918L356.242 233.288L321.559 116.011H296.694L243.826 294.818C240.983 304.433 237.203 314.697 228.467 319.626C224.596 321.81 220.199 323.002 214.25 323.934H214.279L213.377 326.984H258.308L259.21 323.934H259.18C255.407 323.19 252.523 322.298 250.307 321.124C241.015 316.203 244.574 302.615 247.554 292.537L293.205 138.141L338.789 292.315L338.05 294.818C335.207 304.433 331.427 314.697 322.69 319.626C318.82 321.81 314.422 323.002 308.473 323.934H308.503L307.601 326.984H404.905L404.003 323.934H404.033C398.054 322.997 393.644 321.798 389.759 319.593C381.048 314.649 377.275 304.407 374.436 294.807L357.769 238.451L387.428 138.141L435.905 302.099C361.871 397.785 250.011 478.992 250 479C249.959 478.971 121.694 385.851 48.9766 281.551L91.3799 138.141L141.53 307.805C140.458 317.63 137.492 321.55 125.391 323.934H125.36L126.263 326.984H203.08L202.178 323.934H202.208C190.297 322.069 184.609 319.159 176.907 309.337L176.878 309.28L228.833 133.562C229.91 132.192 230.947 130.958 231.969 129.843C232.672 129.075 233.367 128.364 234.062 127.704L234.145 127.626L234.171 127.602C234.211 127.564 234.251 127.527 234.291 127.489C239.69 122.451 245.115 120.46 254.026 119.062L254.929 116.011H209.999L209.097 119.062H209.127C221.228 121.446 224.194 125.365 225.267 135.19L175.351 304.116L116.778 106.011C110.729 85.964 99.3055 68.9926 84.5518 56.207C78.0327 50.5577 70.8627 45.727 63.2197 41.8076C83.9353 28.6279 108.438 21.0047 134.697 21C183.684 21 226.421 47.6081 250 87.2402C273.579 47.5948 316.316 21 365.303 21ZM478.161 326.984C478.163 326.99 478.165 326.996 478.168 327.002C478.171 327.007 478.173 327.013 478.175 327.019L478.183 327.044L478.186 327.055L478.191 327.074C491.306 371.228 530.458 400.563 573.937 403.3C575.724 403.412 577.519 403.48 579.319 403.502C582.772 403.543 586.253 403.417 589.738 403.116C596.811 402.505 603.928 401.177 611 399.084L578.944 408.572C551.648 416.652 523.682 413.333 500.159 401.388C492.374 397.434 485.075 392.536 478.448 386.793C463.695 374.007 452.271 357.036 446.222 336.989L435.905 302.099C444.736 290.685 453.03 279.068 460.53 267.355L478.161 326.984ZM46.8379 278.455C47.5455 279.488 48.258 280.52 48.9766 281.551L41.2148 307.805C42.2872 317.63 45.2529 321.55 57.3545 323.934H57.3848L56.4824 326.984H11.5518L12.4541 323.933H12.4248C24.3215 322.07 30.0104 319.165 37.6982 309.37L46.8379 278.455ZM347.704 322.466C346.517 322.061 345.463 321.619 344.529 321.124C336.729 316.992 337.987 306.752 340.354 297.609L347.704 322.466ZM42.2666 58.249C62.3196 71.9434 77.8413 92.2185 84.8174 115.956C84.8208 115.968 84.8236 115.98 84.8281 115.991C84.8307 115.998 84.8336 116.003 84.8359 116.011L89.8525 132.978L46.8379 278.455C30.5494 254.68 17.2265 230.369 9.03906 206.484C3.28914 191.299 1.77782e-05 174.859 0 157.618C0 118.463 16.2428 83.1574 42.2666 58.249ZM-15.9443 34.4277C11.3523 26.3481 39.3178 29.6669 62.8408 41.6123C62.9675 41.6766 63.0933 41.7428 63.2197 41.8076C55.7042 46.5892 48.688 52.1029 42.2666 58.249C26.6485 47.5833 8.28182 40.9097 -10.9365 39.7002C-12.7237 39.5877 -14.519 39.5198 -16.3193 39.498C-19.7722 39.4565 -23.2534 39.5829 -26.7383 39.8838C-33.811 40.4945 -40.9281 41.8228 -48 43.916L-15.9443 34.4277Z" fill="url(#paint0_linear_238_6371)"/>
</g>
<defs>
<linearGradient id="paint0_linear_238_6371" x1="44" y1="402" x2="475.5" y2="90" gradientUnits="userSpaceOnUse">
<stop stop-color="#D3897C"/>
<stop offset="1" stop-color="#EFD3A8"/>
</linearGradient>
<clipPath id="clip0_238_6371">
<rect width="500" height="500" fill="white"/>
</clipPath>
</defs>
</svg>
