<svg width="500" height="279" viewBox="0 0 500 279" fill="none" xmlns="http://www.w3.org/2000/svg">
<mask id="mask0_243_6164" style="mask-type:alpha" maskUnits="userSpaceOnUse" x="41" y="0" width="457" height="279">
<path d="M497 278.539H41.0002V176.539H497V278.539ZM497 143H41.0002V0H497V143Z" fill="black"/>
</mask>
<g mask="url(#mask0_243_6164)">
<g filter="url(#filter0_d_243_6164)">
<path d="M404.982 212.033L361.85 66.0467H344.657L308.101 189.775C306.136 196.428 303.522 203.53 297.481 206.941C294.805 208.452 291.764 209.277 287.651 209.921H287.671L287.047 212.033H318.115L318.738 209.921H318.718C316.109 209.407 314.115 208.79 312.582 207.977C306.157 204.572 308.619 195.17 310.679 188.197L342.244 81.3599L382.898 218.956C387.08 232.827 394.979 244.571 405.181 253.418C409.763 257.392 414.81 260.781 420.193 263.517C436.459 271.783 455.795 274.08 474.67 268.489L496.835 261.923C491.945 263.371 487.024 264.29 482.133 264.713C479.723 264.921 477.316 265.009 474.929 264.98C473.684 264.965 472.443 264.918 471.207 264.84C441.143 262.947 414.071 242.648 405.003 212.095L404.999 212.081L404.997 212.074L404.992 212.056C404.991 212.052 404.989 212.048 404.987 212.044C404.985 212.041 404.983 212.037 404.982 212.033Z" fill="url(#paint0_linear_243_6164)"/>
<path d="M242.95 189.775C240.985 196.428 238.37 203.53 232.33 206.941C229.653 208.452 226.613 209.277 222.499 209.921H222.52L221.896 212.033H252.963L253.587 209.921H253.567C250.958 209.407 248.963 208.79 247.431 207.977C241.006 204.572 243.467 195.17 245.528 188.197L277.093 81.36L315.701 212.033H354.329L353.706 209.921H353.726C349.592 209.274 346.542 208.444 343.856 206.918C337.833 203.497 335.224 196.41 333.261 189.767L296.699 66.0467H279.506L242.95 189.775Z" fill="url(#paint1_linear_243_6164)"/>
<path d="M155.102 59.1268C150.92 45.2552 143.021 33.512 132.819 24.6649C128.237 20.691 123.19 17.3013 117.806 14.5655C101.541 6.29976 82.2047 4.00305 63.3302 9.59392L41.1653 16.1597C46.0552 14.7113 50.9761 13.7924 55.8666 13.3698C58.2764 13.1616 60.6837 13.0739 63.0714 13.1026C64.3162 13.1177 65.557 13.1644 66.7928 13.2422C97.1436 15.1537 124.422 36.7902 133.003 66.0086C133.005 66.0167 133.007 66.025 133.01 66.0328C133.012 66.0373 133.014 66.041 133.016 66.0467L136.484 77.7869L100.422 199.845C95.106 206.622 91.1723 208.632 82.9462 209.921H82.9668L82.3429 212.033H113.41L114.034 209.921H114.013C105.646 208.272 103.595 205.56 102.853 198.761L137.54 81.3599L172.217 198.761C171.476 205.56 169.425 208.272 161.057 209.921H161.036L161.66 212.033H214.776L214.152 209.921H214.173C205.937 208.631 202.004 206.618 196.679 199.821L196.658 199.782L232.583 78.1909C233.327 77.2435 234.045 76.3896 234.751 75.618C235.237 75.0869 235.718 74.5949 236.199 74.1382L236.256 74.0837L236.274 74.0671C236.301 74.041 236.329 74.015 236.357 73.9891C240.09 70.5025 243.842 69.1253 250.003 68.1581L250.627 66.0467L219.56 66.0467L218.936 68.1581H218.957C227.325 69.8076 229.375 72.5191 230.117 79.3182L195.603 196.209L155.102 59.1268Z" fill="url(#paint2_linear_243_6164)"/>
</g>
</g>
<path d="M73.1192 153.446L73.7843 153.49V163.977C73.7843 164.76 73.9469 165.381 74.2721 165.839C74.5973 166.297 75.0481 166.527 75.6245 166.527C75.6541 166.527 75.6689 166.571 75.6689 166.66C75.6689 166.748 75.6541 166.793 75.6245 166.793C75.2107 166.793 74.8929 166.785 74.6712 166.77L73.4739 166.748L72.0994 166.77C71.8481 166.785 71.486 166.793 71.013 166.793C70.9686 166.793 70.9465 166.748 70.9465 166.66C70.9465 166.571 70.9686 166.527 71.013 166.527C71.6633 166.527 72.1733 166.297 72.5428 165.839C72.9271 165.381 73.1192 164.76 73.1192 163.977V153.446ZM84.4263 167.125C84.4263 167.17 84.3894 167.199 84.3155 167.214C84.2564 167.229 84.212 167.221 84.1825 167.192L73.2522 154.754C72.7349 154.163 72.2915 153.756 71.922 153.534C71.5525 153.313 71.1756 153.202 70.7913 153.202C70.7617 153.202 70.7469 153.158 70.7469 153.069C70.7469 152.98 70.7617 152.936 70.7913 152.936L71.7224 152.958C71.9146 152.973 72.1954 152.98 72.5649 152.98L74.2499 152.958C74.4569 152.943 74.7081 152.936 75.0037 152.936C75.122 152.936 75.2107 152.965 75.2698 153.025C75.3289 153.084 75.4324 153.209 75.5802 153.401C75.8314 153.741 76.0088 153.97 76.1123 154.089L84.249 163.467L84.4263 167.125ZM84.4263 167.125L83.7834 166.46V155.774C83.7834 154.976 83.6208 154.347 83.2956 153.889C82.9705 153.431 82.5196 153.202 81.9432 153.202C81.9136 153.202 81.8989 153.158 81.8989 153.069C81.8989 152.98 81.9136 152.936 81.9432 152.936L82.8966 152.958C83.3695 152.988 83.7686 153.002 84.0938 153.002C84.3894 153.002 84.8032 152.988 85.3353 152.958L86.333 152.936C86.3626 152.936 86.3774 152.98 86.3774 153.069C86.3774 153.158 86.3626 153.202 86.333 153.202C85.7418 153.202 85.2762 153.438 84.9363 153.911C84.5963 154.37 84.4263 154.99 84.4263 155.774V167.125ZM99.8207 161.095H106.206L106.361 161.715H99.4881L99.8207 161.095ZM111.593 166.527C111.667 166.527 111.704 166.571 111.704 166.66C111.704 166.748 111.667 166.793 111.593 166.793C111.298 166.793 110.84 166.778 110.219 166.748C109.568 166.719 109.103 166.704 108.822 166.704C108.453 166.704 108.002 166.719 107.47 166.748C106.967 166.778 106.568 166.793 106.272 166.793C106.213 166.793 106.184 166.748 106.184 166.66C106.184 166.571 106.213 166.527 106.272 166.527C106.657 166.527 106.93 166.49 107.093 166.416C107.27 166.327 107.359 166.179 107.359 165.972C107.359 165.721 107.211 165.3 106.915 164.709L102.415 155.818L103.501 153.911L99.0891 163.644C98.8969 164.073 98.8008 164.472 98.8008 164.842C98.8008 165.374 98.9856 165.788 99.3551 166.083C99.7394 166.379 100.249 166.527 100.885 166.527C100.959 166.527 100.996 166.571 100.996 166.66C100.996 166.748 100.959 166.793 100.885 166.793C100.619 166.793 100.235 166.778 99.732 166.748C99.1704 166.719 98.6826 166.704 98.2687 166.704C97.8697 166.704 97.3893 166.719 96.8276 166.748C96.3251 166.778 95.9186 166.793 95.6082 166.793C95.5491 166.793 95.5196 166.748 95.5196 166.66C95.5196 166.571 95.5491 166.527 95.6082 166.527C96.0221 166.527 96.3694 166.445 96.6503 166.283C96.9311 166.105 97.2119 165.802 97.4928 165.374C97.7736 164.93 98.1062 164.28 98.4905 163.423L103.302 152.847C103.331 152.803 103.398 152.781 103.501 152.781C103.619 152.781 103.686 152.803 103.701 152.847L109.243 163.755C109.761 164.805 110.189 165.529 110.529 165.928C110.869 166.327 111.224 166.527 111.593 166.527ZM124.02 153.446C122.261 153.446 120.998 154.591 120.229 156.882C120.214 156.927 120.17 156.949 120.096 156.949C120.022 156.934 119.985 156.904 119.985 156.86C120.044 156.269 120.111 155.508 120.185 154.576C120.259 153.631 120.296 152.921 120.296 152.448C120.296 152.374 120.333 152.337 120.407 152.337C120.495 152.337 120.54 152.374 120.54 152.448C120.54 152.773 120.961 152.936 121.803 152.936C123.074 152.98 124.56 153.002 126.26 153.002C127.132 153.002 128.055 152.988 129.031 152.958L130.539 152.936C131.1 152.936 131.507 152.899 131.758 152.825C132.024 152.751 132.194 152.603 132.268 152.382C132.283 152.322 132.327 152.293 132.401 152.293C132.49 152.293 132.534 152.322 132.534 152.382C132.49 152.825 132.438 153.534 132.379 154.51C132.334 155.485 132.312 156.269 132.312 156.86C132.312 156.904 132.275 156.927 132.201 156.927C132.127 156.927 132.083 156.904 132.068 156.86C131.847 155.722 131.433 154.872 130.827 154.31C130.221 153.734 129.474 153.446 128.588 153.446C128.159 153.446 127.871 153.542 127.723 153.734C127.59 153.911 127.523 154.259 127.523 154.776V164.997C127.523 165.455 127.568 165.788 127.656 165.994C127.745 166.201 127.915 166.342 128.166 166.416C128.418 166.49 128.817 166.527 129.364 166.527C129.408 166.527 129.43 166.571 129.43 166.66C129.43 166.748 129.408 166.793 129.364 166.793C128.831 166.793 128.41 166.785 128.1 166.77L126.26 166.748L124.464 166.77C124.153 166.785 123.725 166.793 123.178 166.793C123.134 166.793 123.111 166.748 123.111 166.66C123.111 166.571 123.134 166.527 123.178 166.527C123.71 166.527 124.102 166.49 124.353 166.416C124.619 166.342 124.796 166.201 124.885 165.994C124.988 165.773 125.04 165.44 125.04 164.997V154.732C125.04 154.229 124.974 153.889 124.841 153.712C124.708 153.534 124.434 153.446 124.02 153.446ZM145 161.095H151.385L151.54 161.715H144.667L145 161.095ZM156.773 166.527C156.846 166.527 156.883 166.571 156.883 166.66C156.883 166.748 156.846 166.793 156.773 166.793C156.477 166.793 156.019 166.778 155.398 166.748C154.748 166.719 154.282 166.704 154.001 166.704C153.632 166.704 153.181 166.719 152.649 166.748C152.146 166.778 151.747 166.793 151.452 166.793C151.392 166.793 151.363 166.748 151.363 166.66C151.363 166.571 151.392 166.527 151.452 166.527C151.836 166.527 152.109 166.49 152.272 166.416C152.449 166.327 152.538 166.179 152.538 165.972C152.538 165.721 152.39 165.3 152.095 164.709L147.594 155.818L148.68 153.911L144.268 163.644C144.076 164.073 143.98 164.472 143.98 164.842C143.98 165.374 144.165 165.788 144.534 166.083C144.919 166.379 145.429 166.527 146.064 166.527C146.138 166.527 146.175 166.571 146.175 166.66C146.175 166.748 146.138 166.793 146.064 166.793C145.798 166.793 145.414 166.778 144.911 166.748C144.35 166.719 143.862 166.704 143.448 166.704C143.049 166.704 142.568 166.719 142.007 166.748C141.504 166.778 141.098 166.793 140.787 166.793C140.728 166.793 140.699 166.748 140.699 166.66C140.699 166.571 140.728 166.527 140.787 166.527C141.201 166.527 141.549 166.445 141.829 166.283C142.11 166.105 142.391 165.802 142.672 165.374C142.953 164.93 143.285 164.28 143.67 163.423L148.481 152.847C148.51 152.803 148.577 152.781 148.68 152.781C148.798 152.781 148.865 152.803 148.88 152.847L154.422 163.755C154.94 164.805 155.368 165.529 155.708 165.928C156.048 166.327 156.403 166.527 156.773 166.527ZM170.559 164.908C170.559 165.292 170.588 165.573 170.648 165.751C170.707 165.913 170.818 166.024 170.98 166.083C171.157 166.142 171.438 166.172 171.823 166.172H172.576C173.729 166.172 174.727 165.869 175.569 165.263C176.412 164.642 176.974 163.807 177.254 162.758C177.254 162.728 177.284 162.713 177.343 162.713C177.373 162.713 177.402 162.728 177.432 162.758C177.476 162.772 177.498 162.787 177.498 162.802C177.365 164.265 177.299 165.485 177.299 166.46C177.299 166.578 177.269 166.667 177.21 166.726C177.166 166.77 177.084 166.793 176.966 166.793H166.502C166.472 166.793 166.457 166.748 166.457 166.66C166.457 166.571 166.472 166.527 166.502 166.527C166.975 166.527 167.315 166.49 167.521 166.416C167.743 166.342 167.891 166.201 167.965 165.994C168.054 165.773 168.098 165.44 168.098 164.997V154.732C168.098 154.288 168.054 153.963 167.965 153.756C167.891 153.549 167.743 153.409 167.521 153.335C167.3 153.246 166.96 153.202 166.502 153.202C166.472 153.202 166.457 153.158 166.457 153.069C166.457 152.98 166.472 152.936 166.502 152.936L167.632 152.958C168.312 152.988 168.874 153.002 169.317 153.002C169.761 153.002 170.322 152.988 171.002 152.958L172.133 152.936C172.177 152.936 172.2 152.98 172.2 153.069C172.2 153.158 172.177 153.202 172.133 153.202C171.675 153.202 171.335 153.246 171.113 153.335C170.891 153.409 170.744 153.557 170.67 153.778C170.596 153.985 170.559 154.31 170.559 154.754V164.908ZM192.041 164.997C192.041 165.455 192.078 165.788 192.152 165.994C192.225 166.201 192.366 166.342 192.573 166.416C192.794 166.49 193.142 166.527 193.615 166.527C193.659 166.527 193.681 166.571 193.681 166.66C193.681 166.748 193.659 166.793 193.615 166.793C193.127 166.793 192.743 166.785 192.462 166.77L190.777 166.748L189.136 166.77C188.841 166.785 188.442 166.793 187.939 166.793C187.91 166.793 187.895 166.748 187.895 166.66C187.895 166.571 187.91 166.527 187.939 166.527C188.412 166.527 188.759 166.49 188.981 166.416C189.203 166.342 189.351 166.201 189.425 165.994C189.513 165.773 189.558 165.44 189.558 164.997V154.732C189.558 154.288 189.513 153.963 189.425 153.756C189.351 153.549 189.203 153.409 188.981 153.335C188.759 153.246 188.412 153.202 187.939 153.202C187.91 153.202 187.895 153.158 187.895 153.069C187.895 152.98 187.91 152.936 187.939 152.936L189.136 152.958C189.816 152.988 190.363 153.002 190.777 153.002C191.235 153.002 191.804 152.988 192.484 152.958L193.615 152.936C193.659 152.936 193.681 152.98 193.681 153.069C193.681 153.158 193.659 153.202 193.615 153.202C193.157 153.202 192.817 153.246 192.595 153.335C192.373 153.424 192.225 153.579 192.152 153.8C192.078 154.007 192.041 154.333 192.041 154.776V164.997ZM207.8 161.095H214.185L214.34 161.715H207.467L207.8 161.095ZM219.572 166.527C219.646 166.527 219.683 166.571 219.683 166.66C219.683 166.748 219.646 166.793 219.572 166.793C219.277 166.793 218.819 166.778 218.198 166.748C217.547 166.719 217.082 166.704 216.801 166.704C216.432 166.704 215.981 166.719 215.449 166.748C214.946 166.778 214.547 166.793 214.251 166.793C214.192 166.793 214.163 166.748 214.163 166.66C214.163 166.571 214.192 166.527 214.251 166.527C214.636 166.527 214.909 166.49 215.072 166.416C215.249 166.327 215.338 166.179 215.338 165.972C215.338 165.721 215.19 165.3 214.894 164.709L210.394 155.818L211.48 153.911L207.068 163.644C206.876 164.073 206.78 164.472 206.78 164.842C206.78 165.374 206.965 165.788 207.334 166.083C207.718 166.379 208.228 166.527 208.864 166.527C208.938 166.527 208.975 166.571 208.975 166.66C208.975 166.748 208.938 166.793 208.864 166.793C208.598 166.793 208.214 166.778 207.711 166.748C207.149 166.719 206.662 166.704 206.248 166.704C205.849 166.704 205.368 166.719 204.807 166.748C204.304 166.778 203.898 166.793 203.587 166.793C203.528 166.793 203.499 166.748 203.499 166.66C203.499 166.571 203.528 166.527 203.587 166.527C204.001 166.527 204.348 166.445 204.629 166.283C204.91 166.105 205.191 165.802 205.472 165.374C205.753 164.93 206.085 164.28 206.469 163.423L211.28 152.847C211.31 152.803 211.377 152.781 211.48 152.781C211.598 152.781 211.665 152.803 211.68 152.847L217.222 163.755C217.74 164.805 218.168 165.529 218.508 165.928C218.848 166.327 219.203 166.527 219.572 166.527ZM243.676 163.134C243.647 163.134 243.617 163.075 243.588 162.957C243.573 162.839 243.566 162.706 243.566 162.558C243.566 162.425 243.573 162.307 243.588 162.203C243.603 162.1 243.625 162.048 243.654 162.048H250.993C251.022 162.048 251.045 162.107 251.059 162.225C251.089 162.329 251.104 162.447 251.104 162.58C251.104 162.713 251.089 162.839 251.059 162.957C251.045 163.075 251.022 163.134 250.993 163.134H243.676ZM247.867 166.238C247.867 166.268 247.8 166.297 247.667 166.327C247.534 166.342 247.394 166.349 247.246 166.349C246.936 166.349 246.78 166.327 246.78 166.283V158.944C246.78 158.915 246.839 158.892 246.958 158.878C247.076 158.848 247.202 158.833 247.335 158.833C247.468 158.833 247.586 158.848 247.689 158.878C247.808 158.892 247.867 158.915 247.867 158.944V166.238ZM277.948 153.446L278.591 153.49L278.347 163.977C278.333 164.775 278.488 165.403 278.813 165.861C279.153 166.305 279.626 166.527 280.232 166.527C280.276 166.527 280.298 166.571 280.298 166.66C280.298 166.748 280.276 166.793 280.232 166.793C279.833 166.793 279.523 166.785 279.301 166.77L278.081 166.748L276.685 166.77C276.448 166.785 276.13 166.793 275.731 166.793C275.687 166.793 275.665 166.748 275.665 166.66C275.665 166.571 275.687 166.527 275.731 166.527C276.337 166.527 276.818 166.297 277.172 165.839C277.527 165.381 277.712 164.76 277.727 163.977L277.948 153.446ZM293.601 166.527C293.631 166.527 293.645 166.571 293.645 166.66C293.645 166.748 293.631 166.793 293.601 166.793C293.098 166.793 292.699 166.785 292.404 166.77L290.763 166.748L289.1 166.77C288.819 166.785 288.435 166.793 287.947 166.793C287.903 166.793 287.881 166.748 287.881 166.66C287.881 166.571 287.903 166.527 287.947 166.527C288.42 166.527 288.768 166.49 288.989 166.416C289.226 166.327 289.381 166.179 289.455 165.972C289.529 165.765 289.551 165.44 289.522 164.997L289.012 155.153L290.142 153.379L284.489 166.637C284.459 166.697 284.4 166.726 284.311 166.726C284.223 166.726 284.164 166.697 284.134 166.637L277.904 154.776C277.608 154.229 277.298 153.83 276.973 153.579C276.662 153.328 276.3 153.202 275.886 153.202C275.842 153.202 275.82 153.158 275.82 153.069C275.82 152.98 275.842 152.936 275.886 152.936L276.929 152.958C277.135 152.973 277.402 152.98 277.727 152.98L278.902 152.958C279.035 152.943 279.205 152.936 279.412 152.936C279.604 152.936 279.752 153.002 279.855 153.135C279.959 153.268 280.151 153.586 280.432 154.089L285.398 163.4L284.289 165.396L289.477 153.49C289.566 153.283 289.655 153.143 289.743 153.069C289.847 152.98 289.98 152.936 290.142 152.936C290.275 152.936 290.423 152.943 290.586 152.958C290.763 152.973 290.963 152.98 291.184 152.98L292.492 152.958C292.699 152.943 292.995 152.936 293.379 152.936C293.424 152.936 293.446 152.98 293.446 153.069C293.446 153.158 293.424 153.202 293.379 153.202C292.685 153.202 292.182 153.342 291.872 153.623C291.561 153.904 291.421 154.34 291.45 154.931L291.983 164.997C292.012 165.455 292.064 165.788 292.138 165.994C292.226 166.201 292.374 166.342 292.581 166.416C292.803 166.49 293.143 166.527 293.601 166.527ZM308.265 164.997C308.265 165.455 308.302 165.788 308.376 165.994C308.45 166.201 308.59 166.342 308.797 166.416C309.019 166.49 309.366 166.527 309.839 166.527C309.884 166.527 309.906 166.571 309.906 166.66C309.906 166.748 309.884 166.793 309.839 166.793C309.352 166.793 308.967 166.785 308.687 166.77L307.002 166.748L305.361 166.77C305.065 166.785 304.666 166.793 304.164 166.793C304.134 166.793 304.119 166.748 304.119 166.66C304.119 166.571 304.134 166.527 304.164 166.527C304.637 166.527 304.984 166.49 305.206 166.416C305.427 166.342 305.575 166.201 305.649 165.994C305.738 165.773 305.782 165.44 305.782 164.997V154.732C305.782 154.288 305.738 153.963 305.649 153.756C305.575 153.549 305.427 153.409 305.206 153.335C304.984 153.246 304.637 153.202 304.164 153.202C304.134 153.202 304.119 153.158 304.119 153.069C304.119 152.98 304.134 152.936 304.164 152.936L305.361 152.958C306.041 152.988 306.588 153.002 307.002 153.002C307.46 153.002 308.029 152.988 308.709 152.958L309.839 152.936C309.884 152.936 309.906 152.98 309.906 153.069C309.906 153.158 309.884 153.202 309.839 153.202C309.381 153.202 309.041 153.246 308.82 153.335C308.598 153.424 308.45 153.579 308.376 153.8C308.302 154.007 308.265 154.333 308.265 154.776V164.997ZM329.367 152.692C330.062 152.692 330.764 152.751 331.474 152.869C332.198 152.973 332.774 153.113 333.203 153.291C333.336 153.335 333.417 153.394 333.447 153.468C333.491 153.527 333.521 153.638 333.536 153.8L333.824 156.882C333.824 156.927 333.787 156.956 333.713 156.971C333.639 156.986 333.587 156.964 333.558 156.904C333.144 155.692 332.553 154.769 331.784 154.133C331.015 153.483 330.092 153.158 329.013 153.158C328.008 153.158 327.106 153.431 326.308 153.978C325.524 154.51 324.904 155.279 324.446 156.284C324.002 157.289 323.78 158.464 323.78 159.809C323.78 161.169 324.009 162.366 324.468 163.4C324.941 164.42 325.584 165.211 326.397 165.773C327.224 166.32 328.17 166.593 329.234 166.593C330.254 166.593 331.112 166.32 331.806 165.773C332.501 165.211 333.159 164.295 333.779 163.024C333.794 162.979 333.839 162.964 333.912 162.979C333.986 162.994 334.023 163.024 334.023 163.068L333.691 165.817C333.661 165.994 333.632 166.113 333.602 166.172C333.573 166.216 333.491 166.268 333.358 166.327C331.998 166.815 330.624 167.059 329.234 167.059C327.653 167.059 326.234 166.763 324.978 166.172C323.736 165.566 322.761 164.723 322.051 163.644C321.342 162.565 320.987 161.339 320.987 159.964C320.987 158.56 321.349 157.311 322.073 156.217C322.812 155.109 323.817 154.244 325.088 153.623C326.374 153.002 327.801 152.692 329.367 152.692ZM356.12 154.776C356.12 154.333 356.076 154.007 355.987 153.8C355.898 153.579 355.729 153.424 355.477 153.335C355.226 153.246 354.827 153.202 354.28 153.202C354.236 153.202 354.213 153.158 354.213 153.069C354.213 152.98 354.236 152.936 354.28 152.936L355.366 152.958C356.105 152.988 356.771 153.002 357.362 153.002C357.761 153.002 358.33 152.988 359.069 152.958L360.31 152.936C360.355 152.936 360.377 152.98 360.377 153.069C360.377 153.158 360.355 153.202 360.31 153.202C359.808 153.202 359.431 153.246 359.18 153.335C358.943 153.409 358.781 153.549 358.692 153.756C358.618 153.963 358.581 154.288 358.581 154.732V164.997C358.581 165.44 358.618 165.773 358.692 165.994C358.781 166.201 358.943 166.342 359.18 166.416C359.416 166.49 359.793 166.527 360.31 166.527C360.355 166.527 360.377 166.571 360.377 166.66C360.377 166.748 360.355 166.793 360.31 166.793C359.793 166.793 359.379 166.785 359.069 166.77L357.362 166.748L355.366 166.77C355.1 166.785 354.738 166.793 354.28 166.793C354.236 166.793 354.213 166.748 354.213 166.66C354.213 166.571 354.236 166.527 354.28 166.527C354.827 166.527 355.226 166.49 355.477 166.416C355.729 166.342 355.898 166.201 355.987 165.994C356.076 165.788 356.12 165.455 356.12 164.997V154.776ZM347.651 159.277H357.251V159.897H347.651V159.277ZM346.498 154.732C346.498 154.288 346.454 153.963 346.365 153.756C346.276 153.549 346.114 153.409 345.877 153.335C345.656 153.246 345.293 153.202 344.791 153.202C344.747 153.202 344.724 153.158 344.724 153.069C344.724 152.98 344.747 152.936 344.791 152.936L345.988 152.958C346.668 152.988 347.215 153.002 347.629 153.002C348.19 153.002 348.841 152.988 349.58 152.958L350.799 152.936C350.829 152.936 350.844 152.98 350.844 153.069C350.844 153.158 350.829 153.202 350.799 153.202C350.267 153.202 349.875 153.246 349.624 153.335C349.373 153.424 349.195 153.579 349.092 153.8C349.003 154.007 348.959 154.333 348.959 154.776V164.997C348.959 165.44 349.003 165.773 349.092 165.994C349.181 166.201 349.351 166.342 349.602 166.416C349.853 166.49 350.252 166.527 350.799 166.527C350.829 166.527 350.844 166.571 350.844 166.66C350.844 166.748 350.829 166.793 350.799 166.793C350.282 166.793 349.868 166.785 349.558 166.77L347.629 166.748L345.966 166.77C345.67 166.785 345.264 166.793 344.747 166.793C344.717 166.793 344.702 166.748 344.702 166.66C344.702 166.571 344.717 166.527 344.747 166.527C345.264 166.527 345.641 166.49 345.877 166.416C346.114 166.342 346.276 166.201 346.365 165.994C346.454 165.773 346.498 165.44 346.498 164.997V154.732ZM374.226 161.095H380.612L380.767 161.715H373.894L374.226 161.095ZM385.999 166.527C386.073 166.527 386.11 166.571 386.11 166.66C386.11 166.748 386.073 166.793 385.999 166.793C385.704 166.793 385.245 166.778 384.625 166.748C383.974 166.719 383.509 166.704 383.228 166.704C382.858 166.704 382.408 166.719 381.875 166.748C381.373 166.778 380.974 166.793 380.678 166.793C380.619 166.793 380.59 166.748 380.59 166.66C380.59 166.571 380.619 166.527 380.678 166.527C381.063 166.527 381.336 166.49 381.499 166.416C381.676 166.327 381.765 166.179 381.765 165.972C381.765 165.721 381.617 165.3 381.321 164.709L376.82 155.818L377.907 153.911L373.495 163.644C373.303 164.073 373.207 164.472 373.207 164.842C373.207 165.374 373.391 165.788 373.761 166.083C374.145 166.379 374.655 166.527 375.291 166.527C375.365 166.527 375.402 166.571 375.402 166.66C375.402 166.748 375.365 166.793 375.291 166.793C375.025 166.793 374.64 166.778 374.138 166.748C373.576 166.719 373.088 166.704 372.675 166.704C372.275 166.704 371.795 166.719 371.233 166.748C370.731 166.778 370.324 166.793 370.014 166.793C369.955 166.793 369.925 166.748 369.925 166.66C369.925 166.571 369.955 166.527 370.014 166.527C370.428 166.527 370.775 166.445 371.056 166.283C371.337 166.105 371.618 165.802 371.899 165.374C372.179 164.93 372.512 164.28 372.896 163.423L377.707 152.847C377.737 152.803 377.803 152.781 377.907 152.781C378.025 152.781 378.092 152.803 378.106 152.847L383.649 163.755C384.166 164.805 384.595 165.529 384.935 165.928C385.275 166.327 385.63 166.527 385.999 166.527ZM395.972 166.793C395.928 166.793 395.906 166.748 395.906 166.66C395.906 166.571 395.928 166.527 395.972 166.527C396.445 166.527 396.785 166.49 396.992 166.416C397.214 166.342 397.361 166.201 397.435 165.994C397.509 165.773 397.546 165.44 397.546 164.997V154.732C397.546 154.288 397.509 153.963 397.435 153.756C397.361 153.549 397.214 153.409 396.992 153.335C396.77 153.246 396.43 153.202 395.972 153.202C395.928 153.202 395.906 153.158 395.906 153.069C395.906 152.98 395.928 152.936 395.972 152.936H405.373C405.52 152.936 405.594 153.002 405.594 153.135L405.639 156.084C405.639 156.114 405.594 156.136 405.506 156.151C405.432 156.165 405.387 156.151 405.373 156.106C405.136 155.249 404.737 154.613 404.175 154.2C403.614 153.786 402.875 153.579 401.958 153.579H401.293C400.85 153.579 400.525 153.675 400.318 153.867C400.111 154.059 400.007 154.355 400.007 154.754V164.908C400.007 165.337 400.089 165.654 400.251 165.861C400.414 166.068 400.672 166.172 401.027 166.172H401.759C402.912 166.172 403.835 165.935 404.53 165.462C405.225 164.989 405.735 164.258 406.06 163.267C406.06 163.238 406.089 163.223 406.149 163.223C406.193 163.223 406.23 163.238 406.259 163.267C406.304 163.282 406.326 163.297 406.326 163.312C406.178 164.465 406.104 165.514 406.104 166.46C406.104 166.578 406.082 166.667 406.038 166.726C405.993 166.77 405.905 166.793 405.772 166.793H395.972ZM404.53 161.849C404.53 161.243 404.294 160.77 403.821 160.43C403.362 160.075 402.697 159.897 401.825 159.897H398.832V159.277H401.847C402.705 159.277 403.362 159.129 403.821 158.833C404.279 158.538 404.508 158.124 404.508 157.592C404.508 157.547 404.545 157.525 404.619 157.525C404.707 157.525 404.752 157.547 404.752 157.592L404.73 159.587L404.752 160.651C404.781 161.154 404.796 161.553 404.796 161.849C404.796 161.878 404.752 161.893 404.663 161.893C404.574 161.893 404.53 161.878 404.53 161.849ZM421.108 164.908C421.108 165.292 421.138 165.573 421.197 165.751C421.256 165.913 421.367 166.024 421.53 166.083C421.707 166.142 421.988 166.172 422.372 166.172H423.126C424.279 166.172 425.277 165.869 426.119 165.263C426.962 164.642 427.523 163.807 427.804 162.758C427.804 162.728 427.834 162.713 427.893 162.713C427.922 162.713 427.952 162.728 427.981 162.758C428.026 162.772 428.048 162.787 428.048 162.802C427.915 164.265 427.848 165.485 427.848 166.46C427.848 166.578 427.819 166.667 427.76 166.726C427.715 166.77 427.634 166.793 427.516 166.793H417.051C417.022 166.793 417.007 166.748 417.007 166.66C417.007 166.571 417.022 166.527 417.051 166.527C417.524 166.527 417.864 166.49 418.071 166.416C418.293 166.342 418.441 166.201 418.515 165.994C418.603 165.773 418.648 165.44 418.648 164.997V154.732C418.648 154.288 418.603 153.963 418.515 153.756C418.441 153.549 418.293 153.409 418.071 153.335C417.849 153.246 417.509 153.202 417.051 153.202C417.022 153.202 417.007 153.158 417.007 153.069C417.007 152.98 417.022 152.936 417.051 152.936L418.182 152.958C418.862 152.988 419.424 153.002 419.867 153.002C420.31 153.002 420.872 152.988 421.552 152.958L422.683 152.936C422.727 152.936 422.749 152.98 422.749 153.069C422.749 153.158 422.727 153.202 422.683 153.202C422.224 153.202 421.884 153.246 421.663 153.335C421.441 153.409 421.293 153.557 421.219 153.778C421.145 153.985 421.108 154.31 421.108 154.754V164.908Z" fill="#5A312A"/>
<defs>
<filter id="filter0_d_243_6164" x="33.5322" y="-1.10277" width="470.935" height="280.288" filterUnits="userSpaceOnUse" color-interpolation-filters="sRGB">
<feFlood flood-opacity="0" result="BackgroundImageFix"/>
<feColorMatrix in="SourceAlpha" type="matrix" values="0 0 0 0 0 0 0 0 0 0 0 0 0 0 0 0 0 0 127 0" result="hardAlpha"/>
<feOffset/>
<feGaussianBlur stdDeviation="3.81652"/>
<feComposite in2="hardAlpha" operator="out"/>
<feColorMatrix type="matrix" values="0 0 0 0 0.890196 0 0 0 0 0.698039 0 0 0 0 0.580392 0 0 0 0.5 0"/>
<feBlend mode="normal" in2="BackgroundImageFix" result="effect1_dropShadow_243_6164"/>
<feBlend mode="normal" in="SourceGraphic" in2="effect1_dropShadow_243_6164" result="shape"/>
</filter>
<linearGradient id="paint0_linear_243_6164" x1="232.57" y1="276" x2="296.757" y2="48.1651" gradientUnits="userSpaceOnUse">
<stop stop-color="#D3897C"/>
<stop offset="1" stop-color="#EFD3A8"/>
</linearGradient>
<linearGradient id="paint1_linear_243_6164" x1="232.57" y1="276" x2="296.757" y2="48.1651" gradientUnits="userSpaceOnUse">
<stop stop-color="#D3897C"/>
<stop offset="1" stop-color="#EFD3A8"/>
</linearGradient>
<linearGradient id="paint2_linear_243_6164" x1="232.57" y1="276" x2="296.757" y2="48.1651" gradientUnits="userSpaceOnUse">
<stop stop-color="#D3897C"/>
<stop offset="1" stop-color="#EFD3A8"/>
</linearGradient>
</defs>
</svg>
